<svg xmlns="http://www.w3.org/2000/svg" xmlns:xlink="http://www.w3.org/1999/xlink" width="395" height="396" viewBox="0 0 395 396">
    <defs>
        <linearGradient id="a" x1="-8.46%" x2="107.535%" y1="113.654%" y2="-8.782%">
            <stop offset="0%" stop-color="#66EDA8"/>
            <stop offset="100%" stop-color="#273344" stop-opacity=".9"/>
        </linearGradient>
        <linearGradient id="b" x1="-10.181%" x2="103.547%" y1="120.668%" y2="0%">
            <stop offset="0%" stop-color="#66EDA8"/>
            <stop offset="100%" stop-color="#273344" stop-opacity=".9"/>
        </linearGradient>
        <path id="c" d="M0 0h31.967l4.918 4.958 4.098 4.131v47.097H0z"/>
        <path id="d" d="M0 0h31.967l4.918 4.958 4.098 4.131v47.097H0z"/>
        <path id="e" d="M0 0h31.967l4.918 4.958 4.098 4.131v47.097H0z"/>
        <path id="f" d="M0 0h31.967l4.918 4.958 4.098 4.131v47.097H0z"/>
        <linearGradient id="g" x1="-31.092%" x2="150.227%" y1="23.462%" y2="30.349%">
            <stop offset="0%" stop-color="#66EDA8"/>
            <stop offset="100%" stop-color="#273344" stop-opacity=".9"/>
        </linearGradient>
        <path id="h" d="M0 0h42.67l6.565 6.618 5.47 5.514V75H0z"/>
    </defs>
    <g fill="none" fill-rule="evenodd">
        <path fill="#66EDA8" fill-opacity=".05" d="M197.5 396C306.576 396 395 306.576 395 197.5S306.576 0 197.5 0 0 88.424 0 197.5 88.424 396 197.5 396z"/>
        <g transform="translate(16 1)">
            <rect width="78" height="90.559" y="27.763" fill="#FFF" fill-rule="nonzero" stroke="url(#a)" stroke-width="2" rx="4"/>
            <path stroke="url(#b)" d="M70.729 38.922c0 .775-1.263 1.4-2.819 1.4H10.09c-1.559 0-2.819-.626-2.819-1.4v-3.15c0-.774 1.263-1.4 2.819-1.4h57.82c1.556 0 2.819.627 2.819 1.4v3.15zm0 10.199c0 .775-1.263 1.4-2.819 1.4H10.09c-1.559 0-2.819-.627-2.819-1.4v-3.15c0-.775 1.263-1.4 2.819-1.4h57.82c1.556 0 2.819.627 2.819 1.4v3.15zm0 10.198c0 .775-1.263 1.4-2.819 1.4H10.09c-1.559 0-2.819-.626-2.819-1.4V56.17c0-.775 1.263-1.4 2.819-1.4h57.82c1.556 0 2.819.626 2.819 1.4v3.15zm0 10.199c0 .775-1.263 1.4-2.819 1.4H10.09c-1.559 0-2.819-.626-2.819-1.4v-3.15c0-.775 1.263-1.4 2.819-1.4h57.82c1.556 0 2.819.627 2.819 1.4v3.15zm0 10.198c0 .775-1.263 1.4-2.819 1.4H10.09c-1.559 0-2.819-.626-2.819-1.4v-3.149c0-.775 1.263-1.4 2.819-1.4h57.82c1.556 0 2.819.626 2.819 1.4v3.15zm-2.538 8.2a1.696 1.696 0 0 1-1.693-1.7c0-.94.758-1.7 1.693-1.7.934 0 1.692.76 1.692 1.7 0 .938-.758 1.7-1.692 1.7z"/>
            <g transform="translate(18.508)">
                <use fill="#FFF" xlink:href="#c"/>
                <path stroke="#1F4D72" d="M.5.5v55.186h39.983V9.295L31.758.5H.5z"/>
            </g>
            <path stroke="#1F4D72" d="M19.008.5v55.186h39.984V9.59h-9.017V.5H19.008z"/>
            <g fill="#66EDA8" fill-rule="nonzero">
                <path d="M32.091 22.914c-.808 0-1.463.64-1.463 1.43v9.976c0 .79.655 1.431 1.463 1.431h14.637c.809 0 1.464-.64 1.464-1.43v-9.976c0-.79-.655-1.431-1.464-1.431H32.091zm0-1.43h14.637c1.617 0 2.928 1.28 2.928 2.86v9.976c0 1.58-1.311 2.862-2.928 2.862H32.091c-1.616 0-2.927-1.281-2.927-2.862v-9.975c0-1.58 1.31-2.862 2.927-2.862z"/>
                <path d="M35.602 21.655c.28-3.696 1.552-5.376 3.808-5.376 2.255 0 3.527 1.68 3.807 5.376.03.388.393.68.813.653.419-.027.735-.363.706-.75-.33-4.345-2.102-6.685-5.326-6.685-3.225 0-4.997 2.34-5.326 6.684-.03.388.287.724.706.75.42.028.783-.264.812-.652zM39 27.13v2.753c0 .38.367.689.82.689.452 0 .82-.308.82-.689V27.13c0-.38-.368-.688-.82-.688-.453 0-.82.308-.82.688z"/>
            </g>
        </g>
        <g transform="translate(301 1)">
            <rect width="78" height="90.559" y="27.763" fill="#FFF" fill-rule="nonzero" stroke="url(#a)" stroke-width="2" rx="4"/>
            <path stroke="url(#b)" d="M70.729 38.922c0 .775-1.263 1.4-2.819 1.4H10.09c-1.559 0-2.819-.626-2.819-1.4v-3.15c0-.774 1.263-1.4 2.819-1.4h57.82c1.556 0 2.819.627 2.819 1.4v3.15zm0 10.199c0 .775-1.263 1.4-2.819 1.4H10.09c-1.559 0-2.819-.627-2.819-1.4v-3.15c0-.775 1.263-1.4 2.819-1.4h57.82c1.556 0 2.819.627 2.819 1.4v3.15zm0 10.198c0 .775-1.263 1.4-2.819 1.4H10.09c-1.559 0-2.819-.626-2.819-1.4V56.17c0-.775 1.263-1.4 2.819-1.4h57.82c1.556 0 2.819.626 2.819 1.4v3.15zm0 10.199c0 .775-1.263 1.4-2.819 1.4H10.09c-1.559 0-2.819-.626-2.819-1.4v-3.15c0-.775 1.263-1.4 2.819-1.4h57.82c1.556 0 2.819.627 2.819 1.4v3.15zm0 10.198c0 .775-1.263 1.4-2.819 1.4H10.09c-1.559 0-2.819-.626-2.819-1.4v-3.149c0-.775 1.263-1.4 2.819-1.4h57.82c1.556 0 2.819.626 2.819 1.4v3.15zm-2.538 8.2a1.696 1.696 0 0 1-1.693-1.7c0-.94.758-1.7 1.693-1.7.934 0 1.692.76 1.692 1.7 0 .938-.758 1.7-1.692 1.7z"/>
            <g transform="translate(18.508)">
                <use fill="#FFF" xlink:href="#d"/>
                <path stroke="#1F4D72" d="M.5.5v55.186h39.983V9.295L31.758.5H.5z"/>
            </g>
            <path stroke="#1F4D72" d="M19.008.5v55.186h39.984V9.59h-9.017V.5H19.008z"/>
            <g fill="#66EDA8" fill-rule="nonzero">
                <path d="M32.091 22.914c-.808 0-1.463.64-1.463 1.43v9.976c0 .79.655 1.431 1.463 1.431h14.637c.809 0 1.464-.64 1.464-1.43v-9.976c0-.79-.655-1.431-1.464-1.431H32.091zm0-1.43h14.637c1.617 0 2.928 1.28 2.928 2.86v9.976c0 1.58-1.311 2.862-2.928 2.862H32.091c-1.616 0-2.927-1.281-2.927-2.862v-9.975c0-1.58 1.31-2.862 2.927-2.862z"/>
                <path d="M35.602 21.655c.28-3.696 1.552-5.376 3.808-5.376 2.255 0 3.527 1.68 3.807 5.376.03.388.393.68.813.653.419-.027.735-.363.706-.75-.33-4.345-2.102-6.685-5.326-6.685-3.225 0-4.997 2.34-5.326 6.684-.03.388.287.724.706.75.42.028.783-.264.812-.652zM39 27.13v2.753c0 .38.367.689.82.689.452 0 .82-.308.82-.689V27.13c0-.38-.368-.688-.82-.688-.453 0-.82.308-.82.688z"/>
            </g>
        </g>
        <g transform="translate(301 276)">
            <rect width="78" height="90.559" y="27.763" fill="#FFF" fill-rule="nonzero" stroke="url(#a)" stroke-width="2" rx="4"/>
            <path stroke="url(#b)" d="M70.729 38.922c0 .775-1.263 1.4-2.819 1.4H10.09c-1.559 0-2.819-.626-2.819-1.4v-3.15c0-.774 1.263-1.4 2.819-1.4h57.82c1.556 0 2.819.627 2.819 1.4v3.15zm0 10.199c0 .775-1.263 1.4-2.819 1.4H10.09c-1.559 0-2.819-.627-2.819-1.4v-3.15c0-.775 1.263-1.4 2.819-1.4h57.82c1.556 0 2.819.627 2.819 1.4v3.15zm0 10.198c0 .775-1.263 1.4-2.819 1.4H10.09c-1.559 0-2.819-.626-2.819-1.4V56.17c0-.775 1.263-1.4 2.819-1.4h57.82c1.556 0 2.819.626 2.819 1.4v3.15zm0 10.199c0 .775-1.263 1.4-2.819 1.4H10.09c-1.559 0-2.819-.626-2.819-1.4v-3.15c0-.775 1.263-1.4 2.819-1.4h57.82c1.556 0 2.819.627 2.819 1.4v3.15zm0 10.198c0 .775-1.263 1.4-2.819 1.4H10.09c-1.559 0-2.819-.626-2.819-1.4v-3.149c0-.775 1.263-1.4 2.819-1.4h57.82c1.556 0 2.819.626 2.819 1.4v3.15zm-2.538 8.2a1.696 1.696 0 0 1-1.693-1.7c0-.94.758-1.7 1.693-1.7.934 0 1.692.76 1.692 1.7 0 .938-.758 1.7-1.692 1.7z"/>
            <g transform="translate(18.508)">
                <use fill="#FFF" xlink:href="#e"/>
                <path stroke="#1F4D72" d="M.5.5v55.186h39.983V9.295L31.758.5H.5z"/>
            </g>
            <path stroke="#1F4D72" d="M19.008.5v55.186h39.984V9.59h-9.017V.5H19.008z"/>
            <g fill="#66EDA8" fill-rule="nonzero">
                <path d="M32.091 22.914c-.808 0-1.463.64-1.463 1.43v9.976c0 .79.655 1.431 1.463 1.431h14.637c.809 0 1.464-.64 1.464-1.43v-9.976c0-.79-.655-1.431-1.464-1.431H32.091zm0-1.43h14.637c1.617 0 2.928 1.28 2.928 2.86v9.976c0 1.58-1.311 2.862-2.928 2.862H32.091c-1.616 0-2.927-1.281-2.927-2.862v-9.975c0-1.58 1.31-2.862 2.927-2.862z"/>
                <path d="M35.602 21.655c.28-3.696 1.552-5.376 3.808-5.376 2.255 0 3.527 1.68 3.807 5.376.03.388.393.68.813.653.419-.027.735-.363.706-.75-.33-4.345-2.102-6.685-5.326-6.685-3.225 0-4.997 2.34-5.326 6.684-.03.388.287.724.706.75.42.028.783-.264.812-.652zM39 27.13v2.753c0 .38.367.689.82.689.452 0 .82-.308.82-.689V27.13c0-.38-.368-.688-.82-.688-.453 0-.82.308-.82.688z"/>
            </g>
        </g>
        <g transform="translate(17 276)">
            <rect width="78" height="90.559" y="27.763" fill="#FFF" fill-rule="nonzero" stroke="url(#a)" stroke-width="2" rx="4"/>
            <path stroke="url(#b)" d="M70.729 38.922c0 .775-1.263 1.4-2.819 1.4H10.09c-1.559 0-2.819-.626-2.819-1.4v-3.15c0-.774 1.263-1.4 2.819-1.4h57.82c1.556 0 2.819.627 2.819 1.4v3.15zm0 10.199c0 .775-1.263 1.4-2.819 1.4H10.09c-1.559 0-2.819-.627-2.819-1.4v-3.15c0-.775 1.263-1.4 2.819-1.4h57.82c1.556 0 2.819.627 2.819 1.4v3.15zm0 10.198c0 .775-1.263 1.4-2.819 1.4H10.09c-1.559 0-2.819-.626-2.819-1.4V56.17c0-.775 1.263-1.4 2.819-1.4h57.82c1.556 0 2.819.626 2.819 1.4v3.15zm0 10.199c0 .775-1.263 1.4-2.819 1.4H10.09c-1.559 0-2.819-.626-2.819-1.4v-3.15c0-.775 1.263-1.4 2.819-1.4h57.82c1.556 0 2.819.627 2.819 1.4v3.15zm0 10.198c0 .775-1.263 1.4-2.819 1.4H10.09c-1.559 0-2.819-.626-2.819-1.4v-3.149c0-.775 1.263-1.4 2.819-1.4h57.82c1.556 0 2.819.626 2.819 1.4v3.15zm-2.538 8.2a1.696 1.696 0 0 1-1.693-1.7c0-.94.758-1.7 1.693-1.7.934 0 1.692.76 1.692 1.7 0 .938-.758 1.7-1.692 1.7z"/>
            <g transform="translate(18.508)">
                <use fill="#FFF" xlink:href="#f"/>
                <path stroke="#1F4D72" d="M.5.5v55.186h39.983V9.295L31.758.5H.5z"/>
            </g>
            <path stroke="#1F4D72" d="M19.008.5v55.186h39.984V9.59h-9.017V.5H19.008z"/>
            <g fill="#66EDA8" fill-rule="nonzero">
                <path d="M32.091 22.914c-.808 0-1.463.64-1.463 1.43v9.976c0 .79.655 1.431 1.463 1.431h14.637c.809 0 1.464-.64 1.464-1.43v-9.976c0-.79-.655-1.431-1.464-1.431H32.091zm0-1.43h14.637c1.617 0 2.928 1.28 2.928 2.86v9.976c0 1.58-1.311 2.862-2.928 2.862H32.091c-1.616 0-2.927-1.281-2.927-2.862v-9.975c0-1.58 1.31-2.862 2.927-2.862z"/>
                <path d="M35.602 21.655c.28-3.696 1.552-5.376 3.808-5.376 2.255 0 3.527 1.68 3.807 5.376.03.388.393.68.813.653.419-.027.735-.363.706-.75-.33-4.345-2.102-6.685-5.326-6.685-3.225 0-4.997 2.34-5.326 6.684-.03.388.287.724.706.75.42.028.783-.264.812-.652zM39 27.13v2.753c0 .38.367.689.82.689.452 0 .82-.308.82-.689V27.13c0-.38-.368-.688-.82-.688-.453 0-.82.308-.82.688z"/>
            </g>
        </g>
        <path stroke="#66EDA8" stroke-linecap="round" stroke-linejoin="round" stroke-width="2" d="M339 253.184V144.459M57 253.184V144.459M199 339.5v-49.04M199 88.5V39.46M106.12 38.667h184.06M106.12 340.667h184.06"/>
        <g fill="#FFF" fill-rule="nonzero">
            <path stroke="url(#g)" stroke-width="2" d="M87.632 174.198c0 5.966-4.848 10.802-10.828 10.802H10.827C4.847 185 0 180.164 0 174.198V10.802C0 4.836 4.847 0 10.827 0h65.977c5.98 0 10.828 4.836 10.828 10.802v163.396z" transform="translate(155 96)"/>
            <path stroke="url(#a)" d="M6.477 24.226h75.49v134.345H6.477V24.226zm46.102-6.283c0 .43-.305.777-.681.777H37.925c-.377 0-.682-.347-.682-.777v-1.749c0-.43.306-.777.682-.777h13.973c.376 0 .68.347.68.777v1.749zM44.363 8.81c-.907 0-1.643-.74-1.643-1.652 0-.913.736-1.652 1.643-1.652.908 0 1.644.74 1.644 1.652 0 .912-.736 1.652-1.644 1.652zm-.547 169.583c-3.63 0-6.573-2.712-6.573-6.057s2.943-6.056 6.573-6.056c3.63 0 6.572 2.711 6.572 6.056s-2.942 6.057-6.572 6.057z" transform="translate(155 96)"/>
        </g>
        <g>
            <g transform="translate(172 146)">
                <use fill="#FFF" xlink:href="#h"/>
                <path stroke="#1F4D72" d="M.5.5v74h53.706V12.338L42.462.5H.5z"/>
            </g>
            <path stroke="#1F4D72" d="M172.5 146.5v74h53.706v-61.868H214.17V146.5H172.5z"/>
            <g fill="#66EDA8" fill-rule="nonzero">
                <path d="M190.131 176.587c-1.079 0-1.954.855-1.954 1.91v13.315c0 1.055.875 1.91 1.954 1.91h19.538c1.079 0 1.954-.855 1.954-1.91v-13.315c0-1.055-.875-1.91-1.954-1.91H190.13zm0-1.91h19.538c2.158 0 3.907 1.71 3.907 3.82v13.315c0 2.11-1.749 3.82-3.907 3.82H190.13c-2.158 0-3.907-1.71-3.907-3.82v-13.315c0-2.11 1.749-3.82 3.907-3.82z"/>
                <path d="M194.818 174.907c.373-4.935 2.071-7.178 5.082-7.178 3.01 0 4.709 2.243 5.082 7.178.04.517.525.906 1.085.87.56-.036.981-.484.942-1.001-.439-5.799-2.805-8.923-7.109-8.923s-6.67 3.124-7.11 8.923c-.038.517.384.965.943 1.001.56.036 1.046-.353 1.085-.87zM199.353 182.213v3.677c0 .507.49.919 1.094.919.604 0 1.094-.412 1.094-.92v-3.676c0-.507-.49-.919-1.094-.919-.604 0-1.094.412-1.094.92z"/>
            </g>
        </g>
    </g>
</svg>
