<svg xmlns="http://www.w3.org/2000/svg" xmlns:xlink="http://www.w3.org/1999/xlink" width="407" height="448" viewBox="0 0 407 448">
    <defs>
        <path id="a" d="M0 0h48.36l7.44 7.5 6.2 6.25V85H0z"/>
        <linearGradient id="b" x1="-8.46%" x2="107.535%" y1="113.654%" y2="-8.782%">
            <stop offset="0%" stop-color="#66EDA8"/>
            <stop offset="100%" stop-color="#273344" stop-opacity=".9"/>
        </linearGradient>
        <linearGradient id="c" x1="-10.181%" x2="103.547%" y1="120.668%" y2="0%">
            <stop offset="0%" stop-color="#66EDA8"/>
            <stop offset="100%" stop-color="#273344" stop-opacity=".9"/>
        </linearGradient>
        <path id="d" d="M0 0h48.36l7.44 7.5 6.2 6.25V85H0z"/>
    </defs>
    <g fill="none" fill-rule="evenodd">
        <path fill="#66EDA8" fill-opacity=".05" d="M197.5 408C306.576 408 395 318.576 395 209.5S306.576 12 197.5 12 0 100.424 0 209.5 88.424 408 197.5 408z"/>
        <g transform="translate(29 1)">
            <g transform="translate(119 282)">
                <use fill="#FFF" xlink:href="#a"/>
                <path stroke="#1F4D72" d="M.5.5v84h61V13.956L48.152.5H.5z"/>
            </g>
            <path stroke="#1F4D72" d="M119.5 282.5v84h61v-70.25h-13.64V282.5H119.5z"/>
            <g fill="#66EDA8" fill-rule="nonzero">
                <path d="M139.549 316.665c-1.223 0-2.215.969-2.215 2.164v15.092c0 1.195.992 2.164 2.215 2.164h22.142c1.223 0 2.215-.969 2.215-2.164v-15.092c0-1.195-.992-2.164-2.215-2.164H139.55zm0-2.165h22.142c2.446 0 4.429 1.938 4.429 4.33v15.09c0 2.392-1.983 4.33-4.429 4.33H139.55c-2.446 0-4.429-1.938-4.429-4.33v-15.09c0-2.392 1.983-4.33 4.429-4.33z"/>
                <path d="M144.86 314.76c.424-5.592 2.348-8.133 5.76-8.133s5.336 2.541 5.76 8.134c.044.586.594 1.027 1.229.986.634-.04 1.113-.549 1.068-1.135-.497-6.571-3.179-10.112-8.057-10.112s-7.56 3.54-8.057 10.112c-.045.586.434 1.094 1.068 1.135.635.041 1.185-.4 1.23-.986zM150 323.042v4.166c0 .576.555 1.042 1.24 1.042.685 0 1.24-.466 1.24-1.042v-4.166c0-.576-.555-1.042-1.24-1.042-.685 0-1.24.466-1.24 1.042z"/>
            </g>
            <g fill="#FFF" fill-rule="nonzero" stroke="url(#b)" transform="translate(0 237)">
                <path stroke-width="2" d="M99 196.796C99 203.536 93.524 209 86.768 209H12.232C5.476 209 0 203.537 0 196.796V12.204C0 5.464 5.476 0 12.232 0h74.536C93.524 0 99 5.463 99 12.204v184.592z"/>
                <path d="M6.188 27.369h84.15v151.774H6.188V27.369zM59.4 20.271c0 .486-.345.878-.77.878H42.845c-.426 0-.77-.393-.77-.878v-1.976c0-.486.345-.878.77-.878H58.63c.425 0 .77.392.77.878v1.976zM50.119 9.952a1.861 1.861 0 0 1-1.856-1.866c0-1.03.83-1.866 1.856-1.866 1.025 0 1.856.836 1.856 1.866 0 1.03-.831 1.866-1.856 1.866zM49.5 201.536c-4.1 0-7.425-3.064-7.425-6.843 0-3.778 3.324-6.842 7.425-6.842 4.1 0 7.425 3.064 7.425 6.842 0 3.78-3.324 6.843-7.425 6.843z"/>
            </g>
            <rect width="118" height="137" x="259" fill="#FFF" fill-rule="nonzero" stroke="url(#b)" stroke-width="2" rx="4"/>
            <path stroke="url(#c)" d="M367 16.882c0 1.173-1.91 2.118-4.264 2.118h-87.472c-2.358 0-4.264-.947-4.264-2.118v-4.764c0-1.173 1.91-2.118 4.264-2.118h87.472c2.354 0 4.264.947 4.264 2.118v4.764zm0 15.429c0 1.172-1.91 2.118-4.264 2.118h-87.472c-2.358 0-4.264-.948-4.264-2.118v-4.764c0-1.173 1.91-2.118 4.264-2.118h87.472c2.354 0 4.264.947 4.264 2.118v4.764zm0 15.428c0 1.173-1.91 2.118-4.264 2.118h-87.472c-2.358 0-4.264-.947-4.264-2.118v-4.764c0-1.172 1.91-2.118 4.264-2.118h87.472c2.354 0 4.264.947 4.264 2.118v4.764zm0 15.429c0 1.172-1.91 2.118-4.264 2.118h-87.472c-2.358 0-4.264-.948-4.264-2.118v-4.764c0-1.173 1.91-2.118 4.264-2.118h87.472c2.354 0 4.264.947 4.264 2.118v4.764zm0 15.428c0 1.173-1.91 2.118-4.264 2.118h-87.472c-2.358 0-4.264-.947-4.264-2.118v-4.764c0-1.172 1.91-2.118 4.264-2.118h87.472c2.354 0 4.264.948 4.264 2.118v4.764zM363.16 91a2.566 2.566 0 0 1-2.56-2.571 2.566 2.566 0 0 1 2.56-2.572 2.566 2.566 0 0 1 2.56 2.572A2.566 2.566 0 0 1 363.16 91z"/>
            <path stroke="#66EDA8" stroke-linecap="round" stroke-linejoin="round" stroke-width="2" d="M17.467 204c-2.933-32.948 7.96-62.142 32.683-87.583C74.872 90.977 103.155 76.171 135 72M16.946 203.185L10 197M17.054 203.185L24 197"/>
            <g stroke="#66EDA8" stroke-linecap="round" stroke-linejoin="round" stroke-width="2">
                <path d="M330.875 194c2.917 32.792-7.917 61.85-32.5 87.17S245.667 321.226 214 325.377M338.942 199.501L331.5 194M322.808 199.501L330.25 194"/>
            </g>
            <g>
                <g transform="translate(178 53)">
                    <use fill="#FFF" xlink:href="#d"/>
                    <path stroke="#1F4D72" d="M.5.5v84h61V13.956L48.152.5H.5z"/>
                </g>
                <path stroke="#1F4D72" d="M178.5 53.5v84h61V67.25h-13.64V53.5H178.5z"/>
                <g fill="#66EDA8" fill-rule="nonzero">
                    <path d="M198.549 87.665c-1.223 0-2.215.969-2.215 2.164v15.092c0 1.195.992 2.164 2.215 2.164h22.142c1.223 0 2.215-.969 2.215-2.164V89.829c0-1.195-.992-2.164-2.215-2.164H198.55zm0-2.165h22.142c2.446 0 4.429 1.938 4.429 4.33v15.09c0 2.392-1.983 4.33-4.429 4.33H198.55c-2.446 0-4.429-1.938-4.429-4.33V89.83c0-2.392 1.983-4.33 4.429-4.33z"/>
                    <path d="M203.86 85.76c.424-5.592 2.348-8.133 5.76-8.133s5.336 2.541 5.76 8.134c.044.586.594 1.027 1.229.986.634-.04 1.113-.549 1.068-1.135-.497-6.571-3.179-10.112-8.057-10.112s-7.56 3.54-8.057 10.112c-.045.586.434 1.094 1.068 1.135.635.041 1.185-.4 1.23-.986zM209 94.042v4.166c0 .576.555 1.042 1.24 1.042.685 0 1.24-.466 1.24-1.042v-4.166c0-.576-.555-1.042-1.24-1.042-.685 0-1.24.466-1.24 1.042z"/>
                </g>
            </g>
        </g>
    </g>
</svg>
