<svg xmlns="http://www.w3.org/2000/svg" width="395" height="410" viewBox="0 0 395 410">
    <defs>
        <linearGradient id="a" x1="-21.906%" x2="206.46%" y1="20.578%" y2="48.632%">
            <stop offset="0%" stop-color="#66EDA8"/>
            <stop offset="100%" stop-color="#273344" stop-opacity=".9"/>
        </linearGradient>
        <linearGradient id="b" x1="-31.092%" x2="150.227%" y1="23.462%" y2="30.349%">
            <stop offset="0%" stop-color="#66EDA8"/>
            <stop offset="100%" stop-color="#273344" stop-opacity=".9"/>
        </linearGradient>
        <linearGradient id="c" x1="-8.46%" x2="107.535%" y1="113.654%" y2="-8.782%">
            <stop offset="0%" stop-color="#66EDA8"/>
            <stop offset="100%" stop-color="#273344" stop-opacity=".9"/>
        </linearGradient>
        <linearGradient id="d" x1="0%" x2="149.353%" y1="33.688%" y2="64.585%">
            <stop offset="0%" stop-color="#66EDA8"/>
            <stop offset="100%" stop-color="#273344" stop-opacity=".9"/>
        </linearGradient>
        <linearGradient id="e" x1="0%" x2="169.06%" y1="34.196%" y2="78.396%">
            <stop offset="0%" stop-color="#66EDA8"/>
            <stop offset="100%" stop-color="#273344" stop-opacity=".9"/>
        </linearGradient>
        <linearGradient id="f" x1="-25.241%" x2="269.372%" y1="63.338%" y2="82.103%">
            <stop offset="0%" stop-color="#66EDA8"/>
            <stop offset="100%" stop-color="#273344" stop-opacity=".9"/>
        </linearGradient>
    </defs>
    <g fill="none" fill-rule="evenodd">
        <path fill="#66EDA8" fill-opacity=".05" d="M197.5 410C306.576 410 395 320.576 395 211.5S306.576 14 197.5 14 0 102.424 0 211.5 88.424 410 197.5 410z"/>
        <g transform="translate(13 1)">
            <circle cx="183" cy="212" r="170" fill="#FFF" stroke="url(#a)" stroke-width="2"/>
            <g fill="#FFF" fill-rule="nonzero">
                <path stroke="url(#b)" stroke-width="2" d="M99 196.796C99 203.536 93.524 209 86.768 209H12.232C5.476 209 0 203.537 0 196.796V12.204C0 5.464 5.476 0 12.232 0h74.536C93.524 0 99 5.463 99 12.204v184.592z" transform="translate(134 108)"/>
                <path stroke="url(#c)" d="M6.188 27.369h84.15v151.774H6.188V27.369zM59.4 20.271c0 .486-.345.878-.77.878H42.845c-.426 0-.77-.393-.77-.878v-1.976c0-.486.345-.878.77-.878H58.63c.425 0 .77.392.77.878v1.976zM50.119 9.952a1.861 1.861 0 0 1-1.856-1.866c0-1.03.83-1.866 1.856-1.866 1.025 0 1.856.836 1.856 1.866 0 1.03-.831 1.866-1.856 1.866zM49.5 201.536c-4.1 0-7.425-3.064-7.425-6.843 0-3.778 3.324-6.842 7.425-6.842 4.1 0 7.425 3.064 7.425 6.842 0 3.78-3.324 6.843-7.425 6.843z" transform="translate(134 108)"/>
            </g>
            <g transform="translate(28 312)">
                <circle cx="35" cy="35" r="35" fill="#FFF" stroke="url(#d)" stroke-width="2"/>
                <g fill="#66EDA8" fill-rule="nonzero">
                    <path d="M25 30.091c-1.105 0-2 .884-2 1.974v13.76c0 1.09.895 1.973 2 1.973h20c1.105 0 2-.883 2-1.973v-13.76c0-1.09-.895-1.974-2-1.974H25zm0-1.973h20c2.21 0 4 1.767 4 3.947v13.76c0 2.18-1.79 3.947-4 3.947H25c-2.21 0-4-1.767-4-3.947v-13.76c0-2.18 1.79-3.947 4-3.947z"/>
                    <path d="M29.797 28.355c.383-5.099 2.121-7.416 5.203-7.416 3.082 0 4.82 2.317 5.203 7.416.04.535.537.937 1.11.9.572-.037 1.004-.5.964-1.035C41.827 22.228 39.407 19 35 19c-4.406 0-6.828 3.228-7.277 9.22-.04.534.392.998.964 1.035.573.037 1.07-.365 1.11-.9zM34.44 35.906v3.799c0 .524.501.95 1.12.95.619 0 1.12-.426 1.12-.95v-3.8c0-.524-.501-.95-1.12-.95-.619 0-1.12.426-1.12.95z"/>
                </g>
            </g>
            <circle cx="52.5" cy="52.5" r="52.5" fill="#FFF" stroke="url(#e)" stroke-width="2" transform="translate(263 287)"/>
            <circle cx="68.5" cy="68.5" r="68.5" fill="#FFF" stroke="url(#f)" stroke-width="2"/>
            <g stroke="#66EDA8" stroke-linecap="round" stroke-linejoin="round" stroke-width="2">
                <path d="M284.142 348c-.894-9.984 2.43-18.831 9.971-26.54 7.543-7.71 16.172-12.196 25.887-13.46M283.984 347.767L282 346M284.016 347.767L286 346M345.465 333c.91 9.937-2.47 18.742-10.14 26.415-7.67 7.673-16.445 12.138-26.325 13.396M347.982 334.667L345.66 333M342.948 334.667L345.27 333"/>
            </g>
            <g fill="#66EDA8" fill-rule="nonzero">
                <path d="M305 335.091c-1.105 0-2 .884-2 1.974v13.76c0 1.09.895 1.973 2 1.973h20c1.105 0 2-.883 2-1.973v-13.76c0-1.09-.895-1.974-2-1.974h-20zm0-1.973h20c2.21 0 4 1.767 4 3.947v13.76c0 2.18-1.79 3.947-4 3.947h-20c-2.21 0-4-1.767-4-3.947v-13.76c0-2.18 1.79-3.947 4-3.947z"/>
                <path d="M309.797 333.355c.383-5.099 2.121-7.416 5.203-7.416 3.082 0 4.82 2.317 5.203 7.416.04.535.537.937 1.11.9.572-.037 1.004-.5.964-1.035-.45-5.992-2.87-9.22-7.277-9.22-4.406 0-6.828 3.228-7.277 9.22-.04.534.392.998.964 1.035.573.037 1.07-.365 1.11-.9zM314.44 340.906v3.799c0 .524.501.95 1.12.95.619 0 1.12-.426 1.12-.95v-3.8c0-.524-.501-.95-1.12-.95-.619 0-1.12.426-1.12.95z"/>
            </g>
            <path fill="#F9F9F9" stroke="#66EDA8" stroke-width="2" d="M53.074 88.589l-1.953 5.673a4 4 0 1 1-7.564-2.605L52.77 64.9c-6.021-3.543-8.923-10.944-6.56-17.806 2.697-7.833 11.233-11.996 19.066-9.299 7.833 2.697 11.996 11.233 9.3 19.066-2.127 6.176-7.883 10.07-14.062 10.12L56.33 79.134l3.31 1.14a1.5 1.5 0 1 1-.978 2.836l-3.309-1.14-1.302 3.782 5.2 1.79a1.5 1.5 0 1 1-.977 2.837l-5.2-1.79zm7.644-37.558a4 4 0 1 0 2.605-7.564 4 4 0 0 0-2.605 7.564z"/>
            <circle cx="71" cy="37" r="14" stroke="#66EDA8" stroke-width="2"/>
            <path fill="#FFF" stroke="#66EDA8" stroke-width="2" d="M85.148 92.773l1.145 5.89a4 4 0 0 1-7.853 1.526l-5.4-27.78c-6.986-.058-13.2-5.017-14.584-12.14-1.581-8.132 3.73-16.006 11.862-17.587 8.132-1.58 16.006 3.73 17.587 11.862 1.246 6.411-1.791 12.662-7.117 15.795l2.452 12.617 3.436-.667a1.5 1.5 0 0 1 .572 2.944l-3.435.668.763 3.927 5.399-1.05a1.5 1.5 0 0 1 .572 2.945l-5.399 1.05zM72.99 56.425a4 4 0 1 0-1.526-7.853 4 4 0 0 0 1.526 7.853z"/>
            <path stroke="#66EDA8" stroke-width="2" d="M69 51c3.667.667 7-.167 10-2.5 4.5-3.5 2-3 2-4.5"/>
        </g>
    </g>
</svg>
