<?xml version="1.0" encoding="UTF-8"?>
<svg width="63px" height="76px" viewBox="0 0 63 76" version="1.1" xmlns="http://www.w3.org/2000/svg" xmlns:xlink="http://www.w3.org/1999/xlink">
    <!-- Generator: Sketch 47.1 (45422) - http://www.bohemiancoding.com/sketch -->
    <title>Page 1</title>
    <desc>Created with Sketch.</desc>
    <defs></defs>
    <g id="Support" stroke="none" stroke-width="1" fill="none" fill-rule="evenodd">
        <g id="Support_L_Final" transform="translate(-1069.000000, -1245.000000)" fill="#87939E">
            <path d="M1075.90909,1296.81818 L1110.45455,1296.81818 L1110.45455,1293.36364 L1075.90909,1293.36364 L1075.90909,1296.81818 Z M1113.90909,1315.69382 L1108.22118,1311.14245 C1107.90682,1310.82982 1107.47673,1310.63636 1107,1310.63636 C1106.525,1310.63636 1106.09318,1310.82982 1105.77882,1311.14245 L1100.09091,1316.83036 L1094.403,1311.14245 C1094.09036,1310.82982 1093.65855,1310.63636 1093.18182,1310.63636 C1092.70682,1310.63636 1092.275,1310.82982 1091.96064,1311.14245 L1086.27273,1316.83036 L1080.58482,1311.14245 C1080.27045,1310.82982 1079.84036,1310.63636 1079.36364,1310.63636 C1078.88864,1310.63636 1078.45682,1310.82982 1078.14245,1311.14245 L1072.45455,1315.69382 L1072.45455,1258.81818 L1113.90909,1258.81818 L1113.90909,1315.69382 Z M1115.63636,1255.36364 L1070.72727,1255.36364 C1069.77209,1255.36364 1069,1256.13573 1069,1257.09091 L1069,1319.27273 C1069,1320.22791 1069.77209,1321 1070.72727,1321 C1071.204,1321 1071.63582,1320.80827 1071.94845,1320.49391 L1079.22891,1314.67127 L1085.05155,1320.49391 C1085.36418,1320.80655 1085.796,1321 1086.27273,1321 C1086.74945,1321 1087.183,1320.80655 1087.49391,1320.49391 L1093.18182,1314.806 L1098.86973,1320.49391 C1099.18236,1320.80655 1099.61418,1321 1100.09091,1321 C1100.56764,1321 1100.99945,1320.80827 1101.31209,1320.49391 L1107.13473,1314.67127 L1114.41518,1320.49391 C1114.72782,1320.80827 1115.15964,1321 1115.63636,1321 C1116.59155,1321 1117.36364,1320.22791 1117.36364,1319.27273 L1117.36364,1257.09091 C1117.36364,1256.13573 1116.59155,1255.36364 1115.63636,1255.36364 L1115.63636,1255.36364 Z M1075.90909,1289.90909 L1093.18182,1289.90909 L1093.18182,1286.45455 L1075.90909,1286.45455 L1075.90909,1289.90909 Z M1129.45455,1245 L1084.54545,1245 C1083.59027,1245 1082.81818,1245.77382 1082.81818,1246.72727 L1082.81818,1251.90909 L1086.27273,1251.90909 L1086.27273,1248.45455 L1127.72727,1248.45455 L1127.72727,1305.32845 L1122.03936,1300.77882 C1121.72673,1300.46445 1121.29491,1300.27273 1120.81818,1300.27273 L1120.81818,1304.44236 L1120.95291,1304.30764 L1128.23336,1310.13027 C1128.546,1310.44291 1128.97782,1310.63636 1129.45455,1310.63636 C1130.40973,1310.63636 1131.18182,1309.86427 1131.18182,1308.90909 L1131.18182,1246.72727 C1131.18182,1245.77382 1130.40973,1245 1129.45455,1245 L1129.45455,1245 Z M1075.90909,1303.72727 L1100.09091,1303.72727 L1100.09091,1300.27273 L1075.90909,1300.27273 L1075.90909,1303.72727 Z M1100.09091,1279.54545 L1103.54545,1279.54545 L1103.54545,1262.27273 L1100.09091,1262.27273 L1100.09091,1279.54545 Z M1107,1279.54545 L1110.45455,1279.54545 L1110.45455,1262.27273 L1107,1262.27273 L1107,1279.54545 Z M1082.81818,1279.54545 L1089.72727,1279.54545 L1089.72727,1262.27273 L1082.81818,1262.27273 L1082.81818,1279.54545 Z M1075.90909,1279.54545 L1079.36364,1279.54545 L1079.36364,1262.27273 L1075.90909,1262.27273 L1075.90909,1279.54545 Z M1093.18182,1279.54545 L1096.63636,1279.54545 L1096.63636,1262.27273 L1093.18182,1262.27273 L1093.18182,1279.54545 Z" id="Page-1"></path>
        </g>
    </g>
</svg>