<?xml version="1.0" encoding="UTF-8"?>
<svg width="76px" height="76px" viewBox="0 0 76 76" version="1.1" xmlns="http://www.w3.org/2000/svg" xmlns:xlink="http://www.w3.org/1999/xlink">
    <!-- Generator: Sketch 47.1 (45422) - http://www.bohemiancoding.com/sketch -->
    <title>Page 1</title>
    <desc>Created with Sketch.</desc>
    <defs>
        <polygon id="path-1" points="0 38.0001727 0 76 76 76 76 38.0001727 76 0.000345454545 0 0.000345454545"></polygon>
    </defs>
    <g id="Support" stroke="none" stroke-width="1" fill="none" fill-rule="evenodd">
        <g id="Support_L_Final" transform="translate(-302.000000, -1245.000000)">
            <g id="Page-1" transform="translate(302.000000, 1245.000000)">
                <mask id="mask-2" fill="white">
                    <use xlink:href="#path-1"></use>
                </mask>
                <g id="Clip-2"></g>
                <path d="M63.1870909,61.5914364 C61.123,59.6188909 57.1468182,56.1038909 53.1879091,54.2315273 C49.9233636,52.6908 48.0527273,51.1276182 47.4706364,49.4608 C47.0681818,48.3018 47.2478182,46.9752545 48.0233636,45.4034364 C48.6089091,44.2168 49.1616364,43.2305273 49.6729091,42.3219818 C51.8268182,38.4736182 53.4919091,35.6961636 53.4919091,25.8558909 C53.4919091,11.1274364 44.9902727,10.3829818 43.3079091,10.3829818 C41.9295455,10.3829818 41.0676364,10.6869818 40.2333636,10.9823455 C39.3213636,11.3070727 38.3765455,11.6421636 36.2260909,11.6784364 C32.3345455,11.7423455 24.1818182,11.8770727 24.1818182,25.4240727 C24.1818182,34.9016182 26.6483636,39.2526182 28.5880909,42.7503455 C29.0838182,43.6450727 29.5519091,44.4931636 29.9232727,45.3360727 C31.5728182,49.0790727 30.3689091,51.6958909 26.1301818,53.5665273 C20.7756364,55.9328909 18.2538182,57.1644364 12.9942727,61.7918 C7.09736364,55.5943455 3.45454545,47.2308909 3.45454545,38.0003455 C3.45454545,18.9208909 18.9205455,3.45489091 38,3.45489091 C57.0794545,3.45489091 72.5454545,18.9208909 72.5454545,38.0003455 C72.5454545,47.1324364 68.9751818,55.4147091 63.1870909,61.5914364 M38,72.5458 C29.3999091,72.5458 21.5529091,69.3848909 15.5057273,64.1840727 C20.1607273,60.1128909 22.3854545,58.9970727 27.5258182,56.7274364 C33.4797273,54.0968 35.5058182,49.4383455 33.0841818,43.9421636 C32.6489091,42.9558909 32.1428182,42.0421636 31.6090909,41.0748909 C29.7712727,37.7619818 27.6363636,34.0068909 27.6363636,25.4240727 C27.6363636,15.2746182 32.4554545,15.1951636 36.2830909,15.1312545 C38.9983636,15.0846182 40.3249091,14.6165273 41.3871818,14.2399818 C42.0970909,13.9860727 42.5254545,13.8375273 43.3079091,13.8375273 C46.5085455,13.8375273 50.0373636,16.9949818 50.0373636,25.8558909 C50.0373636,34.7928 48.697,36.9916182 46.6588182,40.6327091 C46.1216364,41.5896182 45.5395455,42.6277091 44.9263636,43.8748 C43.7362727,46.2878 43.4961818,48.5488 44.2095455,50.5973455 C45.125,53.2210727 47.5086364,55.3698 51.7093636,57.3578909 C55.1518182,58.9832545 58.7618182,62.1614364 60.6998182,63.9992545 C54.625,69.3054364 46.6985455,72.5458 38,72.5458 M38,0.000345454545 C17.0136364,0.000345454545 0,17.0122545 0,38.0003455 C0,58.9867091 17.0136364,76.0003455 38,76.0003455 C58.9863636,76.0003455 76,58.9867091 76,38.0003455 C76,17.0122545 58.9863636,0.000345454545 38,0.000345454545" id="Fill-1" fill="#87939E" mask="url(#mask-2)"></path>
            </g>
        </g>
    </g>
</svg>