<?xml version="1.0" encoding="UTF-8"?>
<svg width="76px" height="76px" viewBox="0 0 76 76" version="1.1" xmlns="http://www.w3.org/2000/svg" xmlns:xlink="http://www.w3.org/1999/xlink">
    <!-- Generator: Sketch 47.1 (45422) - http://www.bohemiancoding.com/sketch -->
    <title>Page 1</title>
    <desc>Created with Sketch.</desc>
    <defs>
        <polygon id="path-1" points="1.40453463e-19 0.000690909091 1.40453463e-19 76 75.9993091 76 75.9993091 0.000690909091"></polygon>
    </defs>
    <g id="Support" stroke="none" stroke-width="1" fill="none" fill-rule="evenodd">
        <g id="Support_L_Final" transform="translate(-682.000000, -1245.000000)">
            <g id="Page-1" transform="translate(682.000000, 1245.000000)">
                <mask id="mask-2" fill="white">
                    <use xlink:href="#path-1"></use>
                </mask>
                <g id="Clip-2"></g>
                <path d="M35.3686727,42.5019636 C34.7554909,44.8700545 30.9589455,43.6678727 29.7274,43.3725091 L30.8138545,39.1890545 C32.0436727,39.4844182 36.0094909,40.0336909 35.3686727,42.5019636 M34.6933091,49.2521455 C34.0196727,51.8534182 29.4614,50.4491455 27.9828545,50.0950545 L29.1798545,45.4849636 C30.6584,45.8373273 35.3997636,46.5386 34.6933091,49.2521455 M35.3047636,37.7208727 L36.1977636,34.2818727 L34.0179455,33.7585091 L33.1491273,37.1094182 C32.5756727,36.9729636 31.9849455,36.8434182 31.4011273,36.7138727 L32.2751273,33.3422364 L30.0970364,32.8206 L29.2040364,36.2613273 C28.7290364,36.1559636 28.2644,36.0557818 27.8101273,35.9452364 L27.8118545,35.9348727 L24.8064,35.2128727 L24.2260364,37.4514182 C24.2260364,37.4514182 25.8427636,37.8072364 25.8099455,37.8296909 C26.6925818,38.0421455 26.8514909,38.6035091 26.8255818,39.0491455 L25.8082182,42.9700545 C25.8686727,42.9838727 25.9481273,43.0046 26.0344909,43.0391455 C25.9636727,43.0218727 25.8859455,43.0028727 25.8047636,42.9838727 L24.3780364,48.4766 C24.2692182,48.7339636 23.9963091,49.1208727 23.3796727,48.9740545 C23.4004,49.0051455 21.7940364,48.5940545 21.7940364,48.5940545 L20.7110364,50.9915091 L23.5472182,51.6720545 C24.0774909,51.7981455 24.5939455,51.9311455 25.1034909,52.0555091 L24.2018545,55.5376909 L26.3799455,56.0610545 L27.2729455,52.6151455 C27.8688545,52.7706 28.4457636,52.9139636 29.0105818,53.0486909 L28.1210364,56.4773273 L30.3008545,57.0006909 L31.2042182,53.5254182 C34.9230364,54.1990545 37.7177636,53.9278727 38.8957636,50.6961455 C39.8440364,48.0948727 38.8491273,46.5938727 36.8921273,45.6162364 C38.3171273,45.3001455 39.3897636,44.4002364 39.6764909,42.5399636 C40.0720364,39.9991455 38.0580364,38.6328727 35.3047636,37.7208727 M31.0902182,72.5271455 C15.8384,72.5271455 3.47458182,60.1616 3.47458182,44.9097818 C3.47458182,29.6562364 15.8384,17.2924182 31.0902182,17.2924182 C46.3437636,17.2924182 58.7075818,29.6562364 58.7075818,44.9097818 C58.7075818,60.1616 46.3437636,72.5271455 31.0902182,72.5271455 M31.0902182,13.8188727 C13.9194,13.8188727 -0.000690909091,27.7389636 -0.000690909091,44.9097818 C-0.000690909091,62.0806 13.9194,76.0006909 31.0902182,76.0006909 C48.2627636,76.0006909 62.1811273,62.0806 62.1811273,44.9097818 C62.1811273,27.7389636 48.2627636,13.8188727 31.0902182,13.8188727 M44.9084,0.000690909091 C34.9005818,0.000690909091 26.0224,4.74896364 20.3362182,12.0950545 C22.2500364,11.4663273 24.2450364,11.0206909 26.2901273,10.7339636 C31.2024909,6.24132727 37.7246727,3.47423636 44.9084,3.47423636 C60.1619455,3.47423636 72.5257636,15.8380545 72.5257636,31.0916 C72.5257636,38.2753273 69.7604,44.7975091 65.2660364,49.7098727 C64.9793091,51.7549636 64.5336727,53.7499636 63.9049455,55.6655091 C71.2510364,49.9776 75.9993091,41.0994182 75.9993091,31.0916 C75.9993091,13.9190545 62.0809455,0.000690909091 44.9084,0.000690909091" id="Fill-1" fill="#87939E" mask="url(#mask-2)"></path>
            </g>
        </g>
    </g>
</svg>