<?xml version="1.0" encoding="UTF-8"?>
<svg width="56px" height="76px" viewBox="0 0 56 76" version="1.1" xmlns="http://www.w3.org/2000/svg" xmlns:xlink="http://www.w3.org/1999/xlink">
    <!-- Generator: Sketch 47.1 (45422) - http://www.bohemiancoding.com/sketch -->
    <title>Page 1</title>
    <desc>Created with Sketch.</desc>
    <defs></defs>
    <g id="Support" stroke="none" stroke-width="1" fill="none" fill-rule="evenodd">
        <g id="Support_L_Final" transform="translate(-692.000000, -1584.000000)" fill="#87939E">
            <path d="M743.818182,1653.09091 C743.818182,1654.99782 742.270545,1656.54545 740.363636,1656.54545 L698.909091,1656.54545 C697.002182,1656.54545 695.454545,1654.99782 695.454545,1653.09091 L695.454545,1622 C695.454545,1620.09309 697.002182,1618.54545 698.909091,1618.54545 L740.363636,1618.54545 C742.270545,1618.54545 743.818182,1620.09309 743.818182,1622 L743.818182,1653.09091 Z M702.363636,1604.72727 C702.363636,1595.18927 710.096636,1587.45455 719.636364,1587.45455 C729.176091,1587.45455 736.909091,1595.18927 736.909091,1604.72727 L736.909091,1615.09091 L702.363636,1615.09091 L702.363636,1604.72727 Z M740.363636,1615.09091 L740.363636,1604.72727 C740.363636,1593.28064 731.083,1584 719.636364,1584 C708.189727,1584 698.909091,1593.28064 698.909091,1604.72727 L698.909091,1615.09091 C695.093545,1615.09091 692,1618.18445 692,1622 L692,1653.09091 C692,1656.90645 695.093545,1660 698.909091,1660 L740.363636,1660 C744.179182,1660 747.272727,1656.90645 747.272727,1653.09091 L747.272727,1622 C747.272727,1618.18445 744.179182,1615.09091 740.363636,1615.09091 L740.363636,1615.09091 Z M721.363636,1638.79427 L721.363636,1641 C721.363636,1641.95518 720.589818,1642.72727 719.636364,1642.72727 C718.682909,1642.72727 717.909091,1641.95518 717.909091,1641 L717.909091,1638.79427 C716.881364,1638.19491 716.181818,1637.09291 716.181818,1635.81818 C716.181818,1633.91127 717.729455,1632.36364 719.636364,1632.36364 C721.543273,1632.36364 723.090909,1633.91127 723.090909,1635.81818 C723.090909,1637.09291 722.391364,1638.19664 721.363636,1638.79427 L721.363636,1638.79427 Z M719.636364,1628.90909 C715.820818,1628.90909 712.727273,1632.00264 712.727273,1635.81818 C712.727273,1637.59209 713.414727,1639.19327 714.513273,1640.41618 C714.490818,1640.60964 714.454545,1640.80136 714.454545,1641 C714.454545,1643.86209 716.774273,1646.18182 719.636364,1646.18182 C722.498455,1646.18182 724.818182,1643.86209 724.818182,1641 C724.818182,1640.80136 724.781909,1640.60964 724.759455,1640.41618 C725.858,1639.19155 726.545455,1637.59209 726.545455,1635.81818 C726.545455,1632.00264 723.451909,1628.90909 719.636364,1628.90909 L719.636364,1628.90909 Z" id="Page-1"></path>
        </g>
    </g>
</svg>