<?xml version="1.0" encoding="UTF-8"?>
<svg width="116px" height="76px" viewBox="0 0 116 76" version="1.1" xmlns="http://www.w3.org/2000/svg" xmlns:xlink="http://www.w3.org/1999/xlink">
    <!-- Generator: Sketch 47.1 (45422) - http://www.bohemiancoding.com/sketch -->
    <title>Page 1</title>
    <desc>Created with Sketch.</desc>
    <defs>
        <polygon id="path-1" points="88.8615385 64.3076923 88.8615385 0 0.000201958042 0 0.000201958042 64.3076923"></polygon>
    </defs>
    <g id="Support" stroke="none" stroke-width="1" fill="none" fill-rule="evenodd">
        <g id="Support_L_Final" transform="translate(-1042.000000, -1584.000000)">
            <g id="Page-1" transform="translate(1042.000000, 1584.000000)">
                <path d="M15.8333333,3.66713287 L13.3974359,3.66713287 C12.7239103,3.66713287 12.1794872,4.21353566 12.1794872,4.88951049 C12.1794872,5.56548531 12.7239103,6.11188811 13.3974359,6.11188811 L15.8333333,6.11188811 C16.506859,6.11188811 17.0512821,5.56548531 17.0512821,4.88951049 C17.0512821,4.21353566 16.506859,3.66713287 15.8333333,3.66713287 L15.8333333,3.66713287 Z M26.7948718,7.33426573 L2.43589744,7.33426573 L2.43589744,4.88951049 C2.43589744,3.54000559 3.52717949,2.44475524 4.87179487,2.44475524 L24.3589744,2.44475524 C25.7035897,2.44475524 26.7948718,3.54000559 26.7948718,4.88951049 L26.7948718,7.33426573 Z M2.43589744,44.0055944 L26.7948718,44.0055944 L26.7948718,9.77902098 L2.43589744,9.77902098 L2.43589744,44.0055944 Z M26.7948718,48.8951049 C26.7948718,50.2458322 25.7035897,51.3398601 24.3589744,51.3398601 L4.87179487,51.3398601 C3.52717949,51.3398601 2.43589744,50.2458322 2.43589744,48.8951049 L2.43589744,46.4503497 L26.7948718,46.4503497 L26.7948718,48.8951049 Z M24.3589744,0 L4.87179487,0 C2.18134615,0 0,2.18927832 0,4.88951049 L0,48.8951049 C0,51.5965594 2.18134615,53.7846154 4.87179487,53.7846154 L24.3589744,53.7846154 C27.0494231,53.7846154 29.2307692,51.5965594 29.2307692,48.8951049 L29.2307692,4.88951049 C29.2307692,2.18927832 27.0494231,0 24.3589744,0 L24.3589744,0 Z M14.6153846,50.1174825 C15.2889103,50.1174825 15.8333333,49.5710797 15.8333333,48.8951049 C15.8333333,48.2203524 15.2889103,47.6727273 14.6153846,47.6727273 C13.941859,47.6727273 13.3974359,48.2203524 13.3974359,48.8951049 C13.3974359,49.5710797 13.941859,50.1174825 14.6153846,50.1174825 L14.6153846,50.1174825 Z" id="Fill-1" fill="#87939E"></path>
                <g id="Group-5" transform="translate(26.892308, 11.692308)">
                    <mask id="mask-2" fill="white">
                        <use xlink:href="#path-1"></use>
                    </mask>
                    <g id="Clip-4"></g>
                    <path d="M5.79437818,60.2884615 L11.2734999,52.1113365 C11.5481628,52.1776538 11.8208062,52.25 12.1176845,52.25 L76.7442579,52.25 C77.0391166,52.25 77.3137796,52.1776538 77.5904621,52.1113365 L83.0675642,60.2884615 L5.79437818,60.2884615 Z M12.1176845,48.2307692 L76.7442579,48.2307692 L76.7442579,4.01923077 L12.1176845,4.01923077 L12.1176845,48.2307692 Z M88.4901376,61.2048462 L88.5224509,61.1827404 L80.5976173,49.3541442 C80.7046551,48.9964327 80.7834187,48.6246538 80.7834187,48.2307692 L80.7834187,4.01923077 C80.7834187,1.80061538 78.9738747,0 76.7442579,0 L12.1176845,0 C9.88604811,0 8.07852364,1.80061538 8.07852364,4.01923077 L8.07852364,48.2307692 C8.07852364,48.6246538 8.15728727,48.9964327 8.26634462,49.3541442 L0.339491469,61.1827404 L0.369785175,61.2048462 C0.15570965,61.524375 0.000201958042,61.8861058 0.000201958042,62.2980769 C0.000201958042,63.4093942 0.902954406,64.3076923 2.01978238,64.3076923 L86.84216,64.3076923 C87.958988,64.3076923 88.8617404,63.4093942 88.8617404,62.2980769 C88.8617404,61.8861058 88.7062327,61.524375 88.4901376,61.2048462 L88.4901376,61.2048462 Z" id="Fill-3" fill="#87939E" mask="url(#mask-2)"></path>
                </g>
            </g>
        </g>
    </g>
</svg>